{
  "accessors": [
    {
      "bufferView": 2,
      "componentType": 5126,
      "count": 1966,
      "max": [
        21.075496673583984,
        7.2452239990234375,
        5.329319953918457
      ],
      "min": [
        0,
        0,
        0
      ],
      "type": "VEC3"
    },
    {
      "bufferView": 2,
      "byteOffset": 23592,
      "componentType": 5126,
      "count": 1966,
      "max": [
        0.99045646190643311,
        0.99914532899856567,
        0.99865549802780151
      ],
      "min": [
        -0.98140913248062134,
        -0.99623948335647583,
        -0.99503690004348755
      ],
      "type": "VEC3"
    },
    {
      "bufferView": 1,
      "componentType": 5126,
      "count": 1966,
      "max": [
        2.9863278865814209,
        0.97692900896072388
      ],
      "min": [
        0.0053369998931884766,
        0.010254000313580036
      ],
      "type": "VEC2"
    },
    {
      "bufferView": 0,
      "componentType": 5125,
      "count": 5970,
      "max": [
        1965
      ],
      "min": [
        0
      ],
      "type": "SCALAR"
    }
  ],
  "asset": {
    "extras": {
      "author": "alx_flameniro (https://sketchfab.com/alx_flameniro)",
      "license": "CC-BY-4.0 (http://creativecommons.org/licenses/by/4.0/)",
      "source": "https://sketchfab.com/3d-models/avas-folding-knife-liquid-machine-9a76e3ab941d4d00a2a30abe24a60ecc",
      "title": "AVA's Folding Knife Liquid Machine"
    },
    "generator": "Sketchfab-8.25.0",
    "version": "2.0"
  },
  "bufferViews": [
    {
      "buffer": 0,
      "byteLength": 23880,
      "byteOffset": 0,
      "name": "floatBufferViews",
      "target": 34963
    },
    {
      "buffer": 0,
      "byteLength": 15728,
      "byteOffset": 23880,
      "byteStride": 8,
      "name": "floatBufferViews",
      "target": 34962
    },
    {
      "buffer": 0,
      "byteLength": 47184,
      "byteOffset": 39608,
      "byteStride": 12,
      "name": "floatBufferViews",
      "target": 34962
    }
  ],
  "buffers": [
    {
      "byteLength": 86792,
      "uri": "scene.bin"
    }
  ],
  "extensionsRequired": [
    "KHR_materials_pbrSpecularGlossiness"
  ],
  "extensionsUsed": [
    "KHR_materials_pbrSpecularGlossiness"
  ],
  "images": [
    {
      "uri": "textures/MT_FoldingKnife_diffuse.png"
    },
    {
      "uri": "textures/MT_FoldingKnife_specularGlossiness.png"
    },
    {
      "uri": "textures/MT_FoldingKnife_emissive.png"
    }
  ],
  "materials": [
    {
      "doubleSided": true,
      "emissiveFactor": [
        1,
        1,
        1
      ],
      "emissiveTexture": {
        "index": 2,
        "texCoord": 0
      },
      "extensions": {
        "KHR_materials_pbrSpecularGlossiness": {
          "diffuseFactor": [
            1,
            1,
            1,
            1
          ],
          "diffuseTexture": {
            "index": 0,
            "texCoord": 0
          },
          "glossinessFactor": 0.80049542682926833,
          "specularFactor": [
            1,
            1,
            1
          ],
          "specularGlossinessTexture": {
            "index": 1,
            "texCoord": 0
          }
        }
      },
      "name": "MT_FoldingKnife"
    }
  ],
  "meshes": [
    {
      "primitives": [
        {
          "attributes": {
            "NORMAL": 1,
            "POSITION": 0,
            "TEXCOORD_0": 2
          },
          "indices": 3,
          "material": 0,
          "mode": 4
        }
      ]
    }
  ],
  "nodes": [
    {
      "children": [
        1
      ],
      "name": "RootNode (gltf orientation matrix)",
      "rotation": [
        -0.70710678118654746,
        -0,
        -0,
        0.70710678118654757
      ]
    },
    {
      "children": [
        2
      ],
      "matrix": [
        0.93730705976486206,
        0.31262296438217163,
        -0.1540205329656601,
        0,
        0.27473422884941101,
        -0.39091166853904724,
        0.87846976518630981,
        0,
        0.21442139148712158,
        -0.86571067571640015,
        -0.45229250192642212,
        0,
        -0.064911775290966034,
        0.19077485799789429,
        1.1330127716064453,
        1
      ],
      "name": "RootNode (model correction matrix)"
    },
    {
      "children": [
        3
      ],
      "matrix": [
        1,
        0,
        0,
        0,
        0,
        1,
        0,
        0,
        0,
        0,
        1,
        0,
        -9.7070732116699219,
        -3.7002499103546143,
        -2.0195720195770264,
        1
      ],
      "name": "folding_knife.obj.cleaner.gles"
    },
    {
      "mesh": 0,
      "name": ""
    }
  ],
  "samplers": [
    {
      "magFilter": 9729,
      "minFilter": 9987,
      "wrapS": 10497,
      "wrapT": 10497
    }
  ],
  "scene": 0,
  "scenes": [
    {
      "name": "OSG_Scene",
      "nodes": [
        0
      ]
    }
  ],
  "textures": [
    {
      "sampler": 0,
      "source": 0
    },
    {
      "sampler": 0,
      "source": 1
    },
    {
      "sampler": 0,
      "source": 2
    }
  ]
}

