<?xml version="1.0" encoding="UTF-8"?>
<svg width="32px" height="32px" viewBox="0 0 32 32" version="1.1" xmlns="http://www.w3.org/2000/svg" xmlns:xlink="http://www.w3.org/1999/xlink">
    <!-- Generator: Sketch 59.1 (86144) - https://sketch.com -->
    <title>icon/32px/关系图</title>
    <desc>Created with Sketch.</desc>
    <g id="icon/32px/关系图" stroke="none" stroke-width="1" fill="none" fill-rule="evenodd">
        <path d="M19.09625,16.9288402 L19.2201191,16.7797235 C21.8964349,19.8830528 23.7025106,20.9361816 26.7140712,20.9971579 L27,21 L27,25 C22.5697687,25 19.953012,23.6040562 16.6753297,19.9425485 L16.7998564,19.7934495 L17.0798375,19.4542104 L17.6056588,18.8042586 L18.6068117,17.5394232 C18.7740079,17.3285798 18.9370231,17.1251251 19.09625,16.9288402 L19.2201191,16.7797235 Z M27,7 L27,11 C23.3089747,11 21.4318004,12.3694195 17.8269832,16.9134446 L17.0329631,17.9153369 C12.8701285,23.0990768 10.1698116,25 5,25 L5,21 C8.69102527,21 10.5681996,19.6305805 14.1730168,15.0865554 L14.9670369,14.0846631 C19.1298715,8.90092315 21.8301884,7 27,7 Z M4,21 L4,25 L2,25 L2,21 L4,21 Z M30,21 L30,25 L28,25 L28,21 L30,21 Z M5,11 L5,7 C9.43023127,7 12.046988,8.39594376 15.3246703,12.0574515 L15.2001436,12.2065505 L14.9201625,12.5457896 L14.3943412,13.1957414 L13.3931883,14.4605768 C13.1826021,14.7261374 12.9786485,14.9799765 12.780543,15.222532 C10.1035851,12.1170156 8.29748997,11.0638205 5.28592886,11.0028422 L5,11 L5,7 Z M4,7 L4,11 L2,11 L2,7 L4,7 Z M30,7 L30,11 L28,11 L28,7 L30,7 Z" id="形状结合" fill="#AAB0CB" fill-rule="nonzero"></path>
    </g>
</svg>