<?xml version="1.0" encoding="UTF-8"?>
<svg width="18px" height="18px" viewBox="0 0 18 18" version="1.1" xmlns="http://www.w3.org/2000/svg" xmlns:xlink="http://www.w3.org/1999/xlink">
    <!-- Generator: Sketch 62 (91390) - https://sketch.com -->
    <title>icon/title</title>
    <desc>Created with Sketch.</desc>
    <g id="icon/title" stroke="none" stroke-width="1" fill="none" fill-rule="evenodd">
        <path d="M7.488,2.328 C7.596,2.328 7.689,2.292 7.767,2.22 C7.845,2.148 7.884,2.058 7.884,1.95 C7.884,1.842 7.845,1.749 7.767,1.671 C7.689,1.593 7.596,1.554 7.488,1.554 C7.38,1.554 7.296,1.593 7.236,1.671 C7.176,1.749 7.146,1.842 7.146,1.95 C7.146,2.058 7.176,2.148 7.236,2.22 C7.296,2.292 7.38,2.328 7.488,2.328 Z M10.512,2.328 C10.62,2.328 10.707,2.292 10.773,2.22 C10.839,2.148 10.872,2.058 10.872,1.95 C10.872,1.842 10.839,1.749 10.773,1.671 C10.707,1.593 10.62,1.554 10.512,1.554 C10.404,1.554 10.314,1.593 10.242,1.671 C10.17,1.749 10.134,1.842 10.134,1.95 C10.134,2.058 10.17,2.148 10.242,2.22 C10.314,2.292 10.404,2.328 10.512,2.328 Z M13.5,4.938 C13.704,4.938 13.878,4.866 14.022,4.722 C14.166,4.578 14.238,4.404 14.238,4.2 C14.238,3.996 14.166,3.822 14.022,3.678 C13.878,3.534 13.704,3.462 13.5,3.462 C13.296,3.462 13.122,3.534 12.978,3.678 C12.834,3.822 12.762,3.996 12.762,4.2 C12.762,4.404 12.834,4.578 12.978,4.722 C13.122,4.866 13.296,4.938 13.5,4.938 Z M7.488,4.938 C7.704,4.938 7.887,4.866 8.037,4.722 C8.187,4.578 8.262,4.404 8.262,4.2 C8.262,3.996 8.184,3.822 8.028,3.678 C7.872,3.534 7.692,3.462 7.488,3.462 C7.284,3.462 7.11,3.534 6.966,3.678 C6.822,3.822 6.75,3.996 6.75,4.2 C6.75,4.404 6.822,4.578 6.966,4.722 C7.11,4.866 7.284,4.938 7.488,4.938 Z M10.512,4.938 C10.716,4.938 10.89,4.866 11.034,4.722 C11.178,4.578 11.25,4.404 11.25,4.2 C11.25,3.996 11.178,3.822 11.034,3.678 C10.89,3.534 10.716,3.462 10.512,3.462 C10.308,3.462 10.128,3.534 9.972,3.678 C9.816,3.822 9.738,3.996 9.738,4.2 C9.738,4.404 9.816,4.578 9.972,4.722 C10.128,4.866 10.308,4.938 10.512,4.938 Z M4.5,4.938 C4.704,4.938 4.878,4.866 5.022,4.722 C5.166,4.578 5.238,4.404 5.238,4.2 C5.238,3.996 5.166,3.822 5.022,3.678 C4.878,3.534 4.704,3.462 4.5,3.462 C4.296,3.462 4.122,3.534 3.978,3.678 C3.834,3.822 3.762,3.996 3.762,4.2 C3.762,4.404 3.834,4.578 3.978,4.722 C4.122,4.866 4.296,4.938 4.5,4.938 Z M10.512,8.304 C10.824,8.304 11.091,8.196 11.313,7.98 C11.535,7.764 11.646,7.5 11.646,7.188 C11.646,6.876 11.535,6.609 11.313,6.387 C11.091,6.165 10.824,6.054 10.512,6.054 C10.2,6.054 9.936,6.165 9.72,6.387 C9.504,6.609 9.396,6.876 9.396,7.188 C9.396,7.5 9.504,7.764 9.72,7.98 C9.936,8.196 10.2,8.304 10.512,8.304 Z M7.488,8.304 C7.8,8.304 8.067,8.196 8.289,7.98 C8.511,7.764 8.622,7.5 8.622,7.188 C8.622,6.876 8.511,6.609 8.289,6.387 C8.067,6.165 7.8,6.054 7.488,6.054 C7.176,6.054 6.912,6.165 6.696,6.387 C6.48,6.609 6.372,6.876 6.372,7.188 C6.372,7.5 6.48,7.764 6.696,7.98 C6.912,8.196 7.176,8.304 7.488,8.304 Z M13.5,7.962 C13.704,7.962 13.878,7.884 14.022,7.728 C14.166,7.572 14.238,7.392 14.238,7.188 C14.238,6.984 14.166,6.81 14.022,6.666 C13.878,6.522 13.704,6.45 13.5,6.45 C13.296,6.45 13.122,6.522 12.978,6.666 C12.834,6.81 12.762,6.984 12.762,7.188 C12.762,7.392 12.834,7.572 12.978,7.728 C13.122,7.884 13.296,7.962 13.5,7.962 Z M4.5,7.962 C4.704,7.962 4.878,7.884 5.022,7.728 C5.166,7.572 5.238,7.392 5.238,7.188 C5.238,6.984 5.166,6.81 5.022,6.666 C4.878,6.522 4.704,6.45 4.5,6.45 C4.296,6.45 4.122,6.522 3.978,6.666 C3.834,6.81 3.762,6.984 3.762,7.188 C3.762,7.392 3.834,7.572 3.978,7.728 C4.122,7.884 4.296,7.962 4.5,7.962 Z M15.75,7.566 C15.858,7.566 15.951,7.53 16.029,7.458 C16.107,7.386 16.146,7.296 16.146,7.188 C16.146,7.08 16.107,6.993 16.029,6.927 C15.951,6.861 15.858,6.828 15.75,6.828 C15.642,6.828 15.552,6.861 15.48,6.927 C15.408,6.993 15.372,7.08 15.372,7.188 C15.372,7.296 15.408,7.386 15.48,7.458 C15.552,7.53 15.642,7.566 15.75,7.566 Z M2.25,7.566 C2.358,7.566 2.451,7.53 2.529,7.458 C2.607,7.386 2.646,7.296 2.646,7.188 C2.646,7.08 2.607,6.993 2.529,6.927 C2.451,6.861 2.358,6.828 2.25,6.828 C2.142,6.828 2.052,6.861 1.98,6.927 C1.908,6.993 1.872,7.08 1.872,7.188 C1.872,7.296 1.908,7.386 1.98,7.458 C2.052,7.53 2.142,7.566 2.25,7.566 Z M10.512,11.328 C10.824,11.328 11.091,11.22 11.313,11.004 C11.535,10.788 11.646,10.524 11.646,10.212 C11.646,9.9 11.535,9.633 11.313,9.411 C11.091,9.189 10.824,9.078 10.512,9.078 C10.2,9.078 9.936,9.189 9.72,9.411 C9.504,9.633 9.396,9.9 9.396,10.212 C9.396,10.524 9.504,10.788 9.72,11.004 C9.936,11.22 10.2,11.328 10.512,11.328 Z M7.488,11.328 C7.8,11.328 8.067,11.22 8.289,11.004 C8.511,10.788 8.622,10.524 8.622,10.212 C8.622,9.9 8.511,9.633 8.289,9.411 C8.067,9.189 7.8,9.078 7.488,9.078 C7.176,9.078 6.912,9.189 6.696,9.411 C6.48,9.633 6.372,9.9 6.372,10.212 C6.372,10.524 6.48,10.788 6.696,11.004 C6.912,11.22 7.176,11.328 7.488,11.328 Z M13.5,10.95 C13.704,10.95 13.878,10.881 14.022,10.743 C14.166,10.605 14.238,10.428 14.238,10.212 C14.238,9.996 14.166,9.813 14.022,9.663 C13.878,9.513 13.704,9.438 13.5,9.438 C13.296,9.438 13.122,9.516 12.978,9.672 C12.834,9.828 12.762,10.008 12.762,10.212 C12.762,10.416 12.834,10.59 12.978,10.734 C13.122,10.878 13.296,10.95 13.5,10.95 Z M4.5,10.95 C4.704,10.95 4.878,10.881 5.022,10.743 C5.166,10.605 5.238,10.428 5.238,10.212 C5.238,9.996 5.166,9.813 5.022,9.663 C4.878,9.513 4.704,9.438 4.5,9.438 C4.296,9.438 4.122,9.516 3.978,9.672 C3.834,9.828 3.762,10.008 3.762,10.212 C3.762,10.416 3.834,10.59 3.978,10.734 C4.122,10.878 4.296,10.95 4.5,10.95 Z M15.75,10.554 C15.858,10.554 15.951,10.524 16.029,10.464 C16.107,10.404 16.146,10.32 16.146,10.212 C16.146,10.104 16.107,10.011 16.029,9.933 C15.951,9.855 15.858,9.816 15.75,9.816 C15.642,9.816 15.552,9.855 15.48,9.933 C15.408,10.011 15.372,10.104 15.372,10.212 C15.372,10.32 15.408,10.404 15.48,10.464 C15.552,10.524 15.642,10.554 15.75,10.554 Z M2.25,10.554 C2.358,10.554 2.451,10.524 2.529,10.464 C2.607,10.404 2.646,10.32 2.646,10.212 C2.646,10.104 2.607,10.011 2.529,9.933 C2.451,9.855 2.358,9.816 2.25,9.816 C2.142,9.816 2.052,9.855 1.98,9.933 C1.908,10.011 1.872,10.104 1.872,10.212 C1.872,10.32 1.908,10.404 1.98,10.464 C2.052,10.524 2.142,10.554 2.25,10.554 Z M7.488,13.938 C7.704,13.938 7.887,13.866 8.037,13.722 C8.187,13.578 8.262,13.404 8.262,13.2 C8.262,12.996 8.187,12.822 8.037,12.678 C7.887,12.534 7.704,12.462 7.488,12.462 C7.284,12.462 7.11,12.534 6.966,12.678 C6.822,12.822 6.75,12.996 6.75,13.2 C6.75,13.404 6.819,13.578 6.957,13.722 C7.095,13.866 7.272,13.938 7.488,13.938 Z M10.512,13.938 C10.716,13.938 10.89,13.866 11.034,13.722 C11.178,13.578 11.25,13.404 11.25,13.2 C11.25,12.996 11.178,12.822 11.034,12.678 C10.89,12.534 10.716,12.462 10.512,12.462 C10.308,12.462 10.128,12.534 9.972,12.678 C9.816,12.822 9.738,12.996 9.738,13.2 C9.738,13.404 9.816,13.578 9.972,13.722 C10.128,13.866 10.308,13.938 10.512,13.938 Z M13.5,13.938 C13.704,13.938 13.878,13.866 14.022,13.722 C14.166,13.578 14.238,13.404 14.238,13.2 C14.238,12.996 14.166,12.822 14.022,12.678 C13.878,12.534 13.704,12.462 13.5,12.462 C13.296,12.462 13.122,12.534 12.978,12.678 C12.834,12.822 12.762,12.996 12.762,13.2 C12.762,13.404 12.834,13.578 12.978,13.722 C13.122,13.866 13.296,13.938 13.5,13.938 Z M4.5,13.938 C4.704,13.938 4.878,13.866 5.022,13.722 C5.166,13.578 5.238,13.404 5.238,13.2 C5.238,12.996 5.166,12.822 5.022,12.678 C4.878,12.534 4.704,12.462 4.5,12.462 C4.296,12.462 4.122,12.534 3.978,12.678 C3.834,12.822 3.762,12.996 3.762,13.2 C3.762,13.404 3.834,13.578 3.978,13.722 C4.122,13.866 4.296,13.938 4.5,13.938 Z M10.512,15.846 C10.62,15.846 10.707,15.807 10.773,15.729 C10.839,15.651 10.872,15.558 10.872,15.45 C10.872,15.342 10.839,15.252 10.773,15.18 C10.707,15.108 10.62,15.072 10.512,15.072 C10.404,15.072 10.314,15.108 10.242,15.18 C10.17,15.252 10.134,15.342 10.134,15.45 C10.134,15.558 10.17,15.651 10.242,15.729 C10.314,15.807 10.404,15.846 10.512,15.846 Z M7.488,15.846 C7.596,15.846 7.689,15.807 7.767,15.729 C7.845,15.651 7.884,15.558 7.884,15.45 C7.884,15.342 7.845,15.252 7.767,15.18 C7.689,15.108 7.596,15.072 7.488,15.072 C7.38,15.072 7.296,15.108 7.236,15.18 C7.176,15.252 7.146,15.342 7.146,15.45 C7.146,15.558 7.176,15.651 7.236,15.729 C7.296,15.807 7.38,15.846 7.488,15.846 Z" id="î¡" fill="#ffffff" fill-rule="nonzero"></path>
    </g>
</svg>