<?xml version="1.0" encoding="UTF-8"?>
<svg width="140px" height="29px" viewBox="0 0 140 29" version="1.1" xmlns="http://www.w3.org/2000/svg" xmlns:xlink="http://www.w3.org/1999/xlink">
    <title>icon/uih-logo-绿色</title>
    <g id="icon/uih-logo-绿色" stroke="none" stroke-width="1" fill="none" fill-rule="evenodd">
        <g id="uih-logo">
            <g id="Group-33">
                <path d="M25.7536364,16.2545789 L25.7536364,27.4335263 L22.3745455,27.4335263 L22.3745455,16.2545789 L25.7536364,16.2545789 Z M75.5172727,16.2545789 L75.5172727,27.4335263 L72.1604545,27.4335263 L72.1604545,16.2545789 L75.5172727,16.2545789 Z M69.7017045,16.2446316 L69.7017045,18.0004211 L62.5060227,18.0004211 C61.5403409,18.0004211 61.4035227,18.7772632 61.4035227,19.5746316 L61.4035227,19.5746316 L61.4035227,24.0793684 C61.4035227,24.8783158 61.5403409,25.6535789 62.5060227,25.6535789 L62.5060227,25.6535789 L66.2303409,25.6535789 L66.2303409,22.5051579 L63.9314773,22.5051579 L63.9314773,20.7241053 L69.7017045,20.7241053 L69.7017045,27.4330526 L62.0923864,27.4330526 C57.9146591,27.4330526 57.9146591,24.9225263 57.9146591,23.8504211 L57.914702,19.7331715 C57.9166334,18.6245254 58.0054792,16.2446316 62.0923864,16.2446316 L62.0923864,16.2446316 L69.7017045,16.2446316 Z M103.487523,16.2446316 L103.487523,18.0004211 L96.2918409,18.0004211 C95.32775,18.0004211 95.1893409,18.7772632 95.1893409,19.5746316 L95.1893409,19.5746316 L95.1893409,24.0793684 C95.1893409,24.8783158 95.32775,25.6535789 96.2918409,25.6535789 L96.2918409,25.6535789 L100.016159,25.6535789 L100.016159,22.5051579 L97.7188864,22.5051579 L97.7188864,20.7241053 L103.487523,20.7241053 L103.487523,27.4330526 L95.8797955,27.4330526 C91.8837085,27.4330526 91.7099656,25.1360872 91.7024115,23.9980937 L91.7024115,19.6574185 C91.7099656,18.5199276 91.8837085,16.2446316 95.8797955,16.2446316 L95.8797955,16.2446316 L103.487523,16.2446316 Z M53.1099545,16.2537895 L57.3863182,27.4327368 L53.2022273,27.4327368 L49.9615455,19.1274737 L46.8115455,27.4327368 L44.1674545,27.4327368 L48.4438182,16.2537895 L53.1099545,16.2537895 Z M32.28225,16.2537895 L35.3861136,23.3716842 L38.7652045,16.2537895 L42.9031591,16.2537895 L42.9031591,27.4327368 L39.5002045,27.4327368 L39.5002045,19.9958947 L35.9842955,27.4327368 L33.6154318,27.4327368 L30.3970227,19.9722105 L30.3970227,27.4327368 L28.0758864,27.4327368 L28.0758864,16.2537895 L32.28225,16.2537895 Z M82.3928636,16.2537895 L86.9412727,23.5090526 L86.9412727,16.2537895 L89.6330909,16.2537895 L89.6330909,27.4327368 L85.4712727,27.4327368 L80.8035455,19.9722105 L80.8035455,27.4327368 L78.1387727,27.4327368 L78.1387727,16.2537895 L82.3928636,16.2537895 Z M139.450659,11.2251579 L139.450659,16.6109474 C139.450659,18.8372632 138.389523,20.8614737 136.657023,22.3993684 C134.883159,23.9593684 132.436341,25.0109474 129.663386,25.2525263 L129.663386,25.2525263 L129.663386,11.2251579 L139.450659,11.2251579 Z M127.256023,0.578473684 L127.256023,25.2526842 C124.462386,25.0111053 121.994886,23.9595263 120.241705,22.3995263 C118.506023,20.8616316 117.446477,18.8358421 117.446477,16.6111053 L117.446477,16.6111053 L117.446477,0.578473684 L127.256023,0.578473684 Z M44.0236364,0.579105263 L44.0236364,2.33647368 L40.2309091,2.33647368 L40.2309091,11.7359474 L36.7356818,11.7359474 L36.7356818,2.33647368 L32.9890909,2.33647368 L32.9890909,0.579105263 L44.0236364,0.579105263 Z M92.3844091,9.81910526 L91.7639545,11.7359474 L89.8564545,11.7359474 L90.4530455,9.81910526 L92.3844091,9.81910526 Z M98.1094545,9.81926316 L98.6837727,11.7361053 L96.8224091,11.7361053 L96.1796818,9.81926316 L98.1094545,9.81926316 Z M3.47056818,0.579105263 L3.47056818,8.40594737 C3.47056818,9.20331579 3.63125,9.95647368 4.57465909,9.95647368 L4.57465909,9.95647368 L7.42397727,9.95647368 C8.39125,9.95647368 8.55352273,9.20331579 8.55352273,8.40594737 L8.55352273,8.40594737 L8.55352273,0.579105263 L12.0232955,0.579105263 L12.0229516,8.32473066 C12.015386,9.46209601 11.8413785,11.7359474 7.83920455,11.7359474 L7.83920455,11.7359474 L4.18488636,11.7359474 C0.182712451,11.7359474 0.00870488916,9.46209601 0.00113934301,8.32473066 L0.000795454545,0.579105263 L3.47056818,0.579105263 Z M31.4268182,0.578789474 L31.4268182,11.7356316 L28.0461364,11.7356316 L28.0461364,0.578789474 L31.4268182,0.578789474 Z M55.4716591,0.579105263 L55.4716591,2.33647368 L49.2655227,2.33647368 L49.2655227,5.25594737 L55.0802955,5.25594737 L55.0802955,7.03542105 L49.2655227,7.03542105 L49.2655227,9.95647368 L55.77075,9.95647368 L55.77075,11.7359474 L45.7702955,11.7359474 L45.7702955,0.579105263 L55.4716591,0.579105263 Z M82.6851136,0.579105263 L83.1226136,2.12963158 L85.2798864,2.12963158 L85.6951136,0.579105263 L87.6264773,0.579105263 L87.1889773,2.12963158 L87.7410227,2.12963158 L87.7410227,3.11173684 L85.0507955,3.11173684 L85.0507955,6.077 L87.8110227,6.077 L87.8110227,7.08121053 L85.6267045,7.08121053 L87.7410227,11.7359474 L85.8096591,11.7359474 L84.0851136,8.15331579 L82.3860227,11.7359474 L80.4530682,11.7359474 L82.6135227,7.08121053 L80.5230682,7.08121053 L80.5230682,6.077 L83.2594318,6.077 L83.2594318,3.11173684 L80.5914773,3.11173684 L80.5914773,2.12963158 L81.3057955,2.12963158 L80.8921591,0.579105263 L82.6851136,0.579105263 Z M80.2915909,0.578789474 L80.2915909,1.55931579 L79.9002273,1.55931579 L79.9002273,11.7356316 L78.1565909,11.7356316 L78.1565909,10.7993158 L74.1554545,11.303 L74.1554545,10.2751053 L74.5690909,10.2293158 L74.5690909,1.55931579 L74.1093182,1.55931579 L74.1093182,0.578789474 L80.2915909,0.578789474 Z M103.487205,8.29068421 L103.487205,10.2059474 L99.3731136,11.7359474 L99.3731136,9.86489474 L103.487205,8.29068421 Z M18.5064091,0.578473684 L23.0341364,7.81163158 L23.0341364,0.578473684 L25.7243636,0.578473684 L25.7243636,11.7353158 L21.5641364,11.7353158 L16.9186818,4.29847368 L16.9186818,11.7353158 L14.2300455,11.7353158 L14.2300455,0.578473684 L18.5064091,0.578473684 Z M65.7405,0.578473684 C69.9007273,0.578473684 69.923,3.06531579 69.923,4.13742105 L69.9229261,8.24835256 C69.9200761,9.35693304 69.8102875,11.7353158 65.7405,11.7353158 L65.7405,11.7353158 L57.8845909,11.7353158 L57.8845909,0.578473684 Z M98.5445682,6.76321053 L98.5445682,9.40952632 L95.1845682,9.40952632 L95.1845682,11.7353158 L93.3518409,11.7353158 L93.3518409,9.40952632 L90.0157045,9.40952632 L90.0157045,6.76321053 L98.5445682,6.76321053 Z M78.1565909,7.60668421 L76.3159091,7.60668421 L76.3159091,10.0019474 L78.1565909,9.773 L78.1565909,7.60668421 Z M65.3284545,2.33584211 L61.3511818,2.33584211 L61.3511818,9.95584211 L65.3284545,9.95584211 C66.2702727,9.95584211 66.4309545,9.20268421 66.4309545,8.40531579 L66.4309545,8.40531579 L66.4309545,3.90847368 C66.4309545,3.11110526 66.2702727,2.33584211 65.3284545,2.33584211 L65.3284545,2.33584211 Z M139.451136,0.578789474 L139.451136,8.81931579 L129.663864,8.81931579 L129.663864,0.578789474 L139.451136,0.578789474 Z M96.4986591,7.60636842 L92.0854773,7.60636842 L92.0854773,8.519 L96.4986591,8.519 L96.4986591,7.60636842 Z M103.487205,4.40489474 L103.487205,6.36910526 L99.3731136,7.91963158 L99.3731136,5.98068421 L103.487205,4.40489474 Z M78.1565909,4.64142105 L76.3159091,4.64142105 L76.3159091,6.73984211 L78.1565909,6.73984211 L78.1565909,4.64142105 Z M98.5456818,0.578789474 L98.5440909,4.45826316 L95.1888636,4.45826316 L95.1888636,5.23352632 L98.6840909,5.23352632 L98.6840909,6.16826316 L89.8561364,6.16826316 L89.8561364,5.23352632 L93.3481818,5.23352632 L93.3481818,4.45826316 L90.0152273,4.45826316 L90.0152273,0.578789474 L98.5456818,0.578789474 Z M103.487205,0.579105263 L103.487205,2.49436842 L99.3731136,4.04805263 L99.3731136,2.13121053 L103.487205,0.579105263 Z M78.1565909,1.55931579 L76.3159091,1.55931579 L76.3159091,3.773 L78.1565909,3.773 L78.1565909,1.55931579 Z M96.4981818,2.92984211 L92.085,2.92984211 L92.085,3.68142105 L96.4981818,3.68142105 L96.4981818,2.92984211 Z M96.4981818,1.39984211 L92.0627273,1.39984211 L92.0627273,2.12931579 L96.4981818,2.12931579 L96.4981818,1.39984211 Z" id="形状结合" fill="#00485E"></path>
                <g id="Group-32" transform="translate(0.000000, 0.012474)"></g>
            </g>
        </g>
    </g>
</svg>